<svg xmlns="http://www.w3.org/2000/svg" width="201.084" height="37" viewBox="0 0 201.084 37">
  <g id="Group_3" data-name="Group 3" transform="translate(-29.916 -14)">
    <g id="Group_1" data-name="Group 1" transform="translate(6.056 -77.144)">
      <g id="__id8_sioj52a7hf" transform="translate(30.496 115.404)">
        <path id="Path_1" data-name="Path 1" d="M110.464,384a57.411,57.411,0,0,1,6.927-1.2l-4.69,10-6.392.074Z" transform="translate(-106.31 -382.8)" fill="#fff"/>
      </g>
      <g id="__id9_sioj52a7hf" transform="translate(36.412 92)">
        <path id="Path_2" data-name="Path 2" d="M199.841,112.351a55.032,55.032,0,0,0-6.76-.625l-3.307-6.557-3.143,6.7a50.187,50.187,0,0,0-6.811.979L189.583,92Z" transform="translate(-179.82 -92)" fill="#fff"/>
      </g>
      <g id="__id10_sioj52a7hf" transform="translate(51.3 114.968)">
        <path id="Path_3" data-name="Path 3" d="M376.566,387.892h-6.45L364.81,377.38a64.044,64.044,0,0,1,6.713.51Z" transform="translate(-364.81 -377.38)" fill="#fff"/>
      </g>
      <g id="__id11_sioj52a7hf" transform="translate(23.86 112.523)">
        <path id="Path_4" data-name="Path 4" d="M68.308,351.636c-5.231-2.073-12.661-3.25-20.854-3.011-9.946.3-18.641,2.608-23.594,5.86C27.389,350.117,36.768,347,47.783,347,56.207,347,63.677,348.822,68.308,351.636Z" transform="translate(-23.86 -347)" fill="#fff"/>
      </g>
    </g>
    <text id="Iconneed" transform="translate(81 43)" fill="#fff" font-size="31" font-family="Stolzl-Bold, Stolzl" font-weight="700"><tspan x="0" y="0">Iconneed</tspan></text>
  </g>
</svg>
