<svg xmlns="http://www.w3.org/2000/svg" width="201.084" height="37" viewBox="0 0 201.084 37">
  <g id="Group_2" data-name="Group 2" transform="translate(-29.916 -14)">
    <g id="Group_1" data-name="Group 1" transform="translate(6.056 -77.144)">
      <path id="Union_1" data-name="Union 1" d="M187.735,93.749a57.29,57.29,0,0,1,6.926-1.2l-4.689,10-6.392.075Zm21.956,8.876-5.306-10.513a63.915,63.915,0,0,1,6.712.51l5.044,10Zm-8.823-12.958c8.424,0,15.893,1.823,20.525,4.636-5.231-2.073-12.66-3.25-20.854-3.01-9.946.3-18.641,2.607-23.594,5.86C180.473,92.784,189.851,89.666,200.867,89.666Zm-1.608-20.523L209.517,89.5a55.066,55.066,0,0,0-6.761-.625l-3.307-6.556-3.143,6.7A50.224,50.224,0,0,0,189.5,90Z" transform="translate(-153.084 22.856)" fill="#5368fb"/>
    </g>
    <text id="Iconneed" transform="translate(81 43)" fill="#fff" font-size="31" font-family="Stolzl-Bold, Stolzl" font-weight="700"><tspan x="0" y="0">Iconneed</tspan></text>
  </g>
</svg>
