<svg xmlns="http://www.w3.org/2000/svg" width="96.341" height="70.1" viewBox="0 0 96.341 70.1">
  <path id="Path_50" data-name="Path 50" d="M75.278,136.75H54.608V115.864h6.831a2.137,2.137,0,0,0,1.732-3.386L49.883,94.092a2.118,2.118,0,0,0-3.445,0L33.15,112.478a2.131,2.131,0,0,0,1.732,3.386h6.831V136.75H18.563C8.229,136.179,0,126.514,0,116.041a19.611,19.611,0,0,1,9.725-16.93,13.148,13.148,0,0,1-.807-4.587A13.333,13.333,0,0,1,22.264,81.178a13.119,13.119,0,0,1,4.567.807A26.72,26.72,0,0,1,77.6,90.8c10.65,1.831,18.741,11.693,18.741,22.855C96.341,125.589,87.05,135.923,75.278,136.75Z" transform="translate(0 -66.65)" fill="#a6b6c3"/>
</svg>
